<svg fill="none" height="16" viewBox="0 0 16 16" width="16" xmlns="http://www.w3.org/2000/svg"><g fill="#212121"><path d="m4.76779 2.92224.00106-.00066.0097-.00597c.00937-.00572.02447-.01481.04501-.0268.0411-.024.10385-.05954.18588-.10281.16429-.08666.40456-.2036.702-.32082.59845-.23584 1.40911-.46518 2.28855-.46518.87945 0 1.69011.22934 2.28851.46518.2975.11722.5378.23416.702.32082.0821.04327.1448.07881.1859.10281.0206.01199.0357.02108.045.0268l.0097.00597.0009.00053c.233.14744.5422.07879.6901-.15411.148-.23312.079-.54209-.1541-.69011l-.0012-.00076-.0018-.00113-.0053-.00332-.0175-.01075c-.0146-.00893-.0352-.02132-.0615-.03667-.0526-.03069-.1279-.07328-.2236-.12376-.1912-.10084-.465-.2339-.8019-.36668-.67032-.26416-1.60966-.53482-2.65521-.53482s-1.98489.27066-2.65519.53482c-.33694.13278-.61073.26584-.80191.36668-.0957.05048-.17104.09307-.22359.12376-.02629.01535-.04691.02774-.06155.03667l-.01746.01075-.00531.00332-.00179.00113-.00096.00061c-.23312.14801-.30236.45714-.15434.69026.14797.23306.4568.30208.6899.15424z"/><path d="m4 4c-1.10457 0-2 .89543-2 2v4c0 1.1046.89543 2 2 2h4.5c1.10457 0 2-.8954 2-2v-.13842l2.752 1.57252c.1547.0885.3448.0878.499-.0016.1541-.0895.249-.2543.249-.4325v-6c0-.17824-.0949-.34299-.249-.43246-.1542-.08946-.3443-.09009-.499-.00166l-2.752 1.57254v-.13842c0-1.10457-.89543-2-2-2zm6.5 3.29017 2.5-1.42858v4.27681l-2.5-1.42857zm-7.5-1.29017c0-.55228.44772-1 1-1h4.5c.55228 0 1 .44772 1 1v4c0 .5523-.44772 1-1 1h-4.5c-.55228 0-1-.4477-1-1z"/><path d="m4.76885 13.0785-.00106-.0007c-.2331-.1478-.54193-.0788-.6899.1543-.14802.2331-.07878.5422.15434.6902l.00096.0006.00179.0012.00531.0033.01746.0107c.01464.009.03526.0214.06155.0367.05255.0307.12789.0733.22359.1238.19118.1008.46497.2339.80191.3666.6703.2642 1.60964.5349 2.65519.5349s1.98489-.2707 2.65521-.5349c.3369-.1327.6107-.2658.8019-.3666.0957-.0505.171-.0931.2236-.1238.0263-.0153.0469-.0277.0615-.0367l.0175-.0107.0053-.0033.0018-.0012.0012-.0007c.2331-.148.3021-.457.1541-.6901-.1479-.2329-.4571-.3016-.6901-.1541l-.0009.0005-.0097.006c-.0093.0057-.0244.0148-.045.0268-.0411.024-.1038.0595-.1859.1028-.1642.0866-.4045.2036-.702.3208-.5984.2358-1.40906.4652-2.28851.4652-.87944 0-1.6901-.2294-2.28855-.4652-.29744-.1172-.53771-.2342-.702-.3208-.08203-.0433-.14478-.0788-.18588-.1028-.02054-.012-.03564-.0211-.04501-.0268z"/></g></svg>