<svg height="24" viewBox="0 0 24 24" width="24" xmlns="http://www.w3.org/2000/svg"><circle cx="20.288" cy="8.344" r="1.707"/><path d="m18.581 11.513h3.413v3.656c0 .942-.765 1.706-1.707 1.706h-1.706zm-16.575-7.313v15.6l11.213 1.979v-19.558zm8.288 5.411-1.95.049v5.752h-1.463v-5.655l-1.949.098v-1.316l5.362-.292zm3.899.439v8.288h1.95c.808 0 1.463-.655 1.463-1.462v-6.826zm1.463-4.875c-.586 0-1.105.264-1.463.673v2.555c.357.409.877.673 1.463.673 1.077 0 1.95-.874 1.95-1.95s-.873-1.951-1.95-1.951z"/></svg>