<svg enable-background="new 0 0 76.00 76.00" height="76" viewBox="0 0 76 76" width="76" xmlns="http://www.w3.org/2000/svg"><path d="m19 56h9v-24.4999h-9m4.6107-11.6557c-2.7874 0-4.6107 1.8287-4.6107 4.2324 0 2.3522 1.7705 4.2353 4.5026 4.2353h.0544c2.841 0 4.6082-1.8831 4.6082-4.2353-.0536-2.4037-1.7672-4.2324-4.5545-4.2324zm33.3893 22.263v13.8926h-8v-13c0-3.2929-1.3227-5.4919-4.2708-5.4919-2.2505 0-3.5897 1.5145-4.1794 2.9792-.2144.524-.5498 1.2794-.5498 2.0128v13.4999h-8s0-21 0-24.4999h8v3.7499l.2802-.0426v-.0794c1.0819-1.6669 3.0149-4.0487 7.3411-4.0487 5.361 0 9.3787 3.5024 9.3787 11.0281z" stroke-linejoin="round" stroke-width=".2"/></svg>