<svg fill="none" height="24" viewBox="0 0 24 24" width="24" xmlns="http://www.w3.org/2000/svg" xmlns:xlink="http://www.w3.org/1999/xlink"><clipPath id="a"><path d="m0 0h24v24h-24z"/></clipPath><g clip-path="url(#a)"><path d="m23.4994 6.50662c-.1322-.47915-.3961-.91723-.7652-1.27032-.3692-.35309-.8306-.60878-1.3381-.74144-1.8779-.49412-9.4022-.49412-9.4022-.49412-3.13743-.03543-6.274.12176-9.38965.47059-.50765.14235-.96832.40393-1.33852.76005-.370194.35611-.637708.795-.777284 1.27524-.336605 1.81405-.5000089 3.65278-.48826269 5.49408-.01255171 1.8414.15085869 3.6802.48826269 5.4942.136703.4789.40364.9162.774594 1.269.37095.3527.83315.6086 1.34121.7427 1.90298.4941 9.38965.4941 9.38965.4941 3.1416.0355 6.2824-.1217 9.4022-.4706.5075-.1326.9689-.3883 1.3381-.7414.3691-.3531.633-.7912.7652-1.2703.3452-1.8132.5128-3.6522.5008-5.4941.0259-1.8502-.1419-3.69833-.5008-5.51768zm-13.89671 8.91768v-6.84709l6.25981 3.42349z" fill="#000"/></g></svg>